<?xml version="1.0" encoding="utf-8"?>
<!-- Generator: Adobe Illustrator 21.0.2, SVG Export Plug-In . SVG Version: 6.00 Build 0)  -->
<svg version="1.1" id="Layer_1" xmlns="http://www.w3.org/2000/svg" xmlns:xlink="http://www.w3.org/1999/xlink" x="0px" y="0px"
	 viewBox="0 0 48 48" style="enable-background:new 0 0 48 48;" xml:space="preserve">
<style type="text/css">
	.st0{fill:#F58538;}
</style>
<path class="st0" d="M41.5,5.2H6.5c-1.7,0-3.1,1.4-3.1,3.1v24.9c0,1.7,1.4,3.1,3.1,3.1h3.3c0.5,0,0.9,0.2,1.2,0.5l5.2,6l3.1-5.9
	c0.2-0.4,0.7-0.7,1.2-0.7l21.1,0c1.7,0,3.1-1.4,3.1-3.1V8.3C44.6,6.6,43.2,5.2,41.5,5.2z M26.5,27.9c0,0.4-0.3,0.7-0.7,0.7H11.3
	c-0.4,0-0.7-0.3-0.7-0.7V26c0-0.4,0.3-0.7,0.7-0.7h14.5c0.4,0,0.7,0.3,0.7,0.7V27.9z M32,20.5c0,0.4-0.3,0.7-0.7,0.7h-20
	c-0.4,0-0.7-0.3-0.7-0.7v-1.8c0-0.4,0.3-0.7,0.7-0.7h20c0.4,0,0.7,0.3,0.7,0.7V20.5z M37.4,13c0,0.4-0.3,0.7-0.7,0.7H11.3
	c-0.4,0-0.7-0.3-0.7-0.7v-1.8c0-0.4,0.3-0.7,0.7-0.7h25.4c0.4,0,0.7,0.3,0.7,0.7V13z"/>
</svg>
