<?xml version="1.0" encoding="utf-8"?>
<!-- Generator: Adobe Illustrator 21.0.2, SVG Export Plug-In . SVG Version: 6.00 Build 0)  -->
<svg version="1.1" id="Layer_1" xmlns="http://www.w3.org/2000/svg" xmlns:xlink="http://www.w3.org/1999/xlink" x="0px" y="0px"
	 viewBox="0 0 48 48" style="enable-background:new 0 0 48 48;" xml:space="preserve">
<style type="text/css">
	.st0{fill:#F58538;}
</style>
<g>
	<rect x="17.4" y="21.6" class="st0" width="13.2" height="4.8"/>
	<path class="st0" d="M35.8,40.2h-5c-0.4,0-0.8-0.3-0.8-0.8v-31c0-0.4,0.3-0.8,0.8-0.8h5c0.4,0,0.8,0.3,0.8,0.8v31
		C36.5,39.9,36.2,40.2,35.8,40.2z"/>
	<path class="st0" d="M42.9,35.1h-4.3c-0.4,0-0.7-0.3-0.7-0.7V13.5c0-0.4,0.3-0.7,0.7-0.7h4.3c0.4,0,0.7,0.3,0.7,0.7v20.9
		C43.6,34.8,43.3,35.1,42.9,35.1z"/>
	<path class="st0" d="M43.3,26.4h1.9c0.4,0,0.8-0.4,0.8-0.8v-3.3c0-0.4-0.4-0.8-0.8-0.8h-1.9V26.4z"/>
	<path class="st0" d="M4.6,26.4H2.8c-0.4,0-0.8-0.4-0.8-0.8v-3.3c0-0.4,0.4-0.8,0.8-0.8h1.8V26.4z"/>
	<path class="st0" d="M9.3,35.1H5.1c-0.4,0-0.7-0.3-0.7-0.7V13.5c0-0.4,0.3-0.7,0.7-0.7h4.3c0.4,0,0.7,0.3,0.7,0.7v20.9
		C10,34.8,9.7,35.1,9.3,35.1z"/>
	<path class="st0" d="M17.3,40.2h-5c-0.4,0-0.8-0.3-0.8-0.8v-31c0-0.4,0.3-0.8,0.8-0.8h5c0.4,0,0.8,0.3,0.8,0.8v31
		C18,39.9,17.7,40.2,17.3,40.2z"/>
</g>
</svg>
